M48
;DRILL file {KiCad 4.0.7} date 04/07/18 18:45:33
;FORMAT={-:-/ absolute / inch / decimal}
FMAT,2
INCH,TZ
T1C0.016
T2C0.031
T3C0.039
%
G90
G05
M72
T1
X5.3934Y-3.6322
X5.4Y-3.375
X5.4054Y-3.7652
X5.4072Y-3.4604
X5.4125Y-3.6725
X5.4238Y-3.5946
X5.4374Y-3.5314
X5.6725Y-3.6125
X5.7675Y-3.41
X5.7825Y-3.365
X5.8275Y-3.525
X5.8675Y-3.755
X5.891Y-3.365
X5.9Y-3.41
X5.9375Y-3.7425
X5.9675Y-3.4425
X6.005Y-3.6925
X6.0275Y-3.45
X6.05Y-3.6875
X6.06Y-3.565
T2
X4.809Y-3.2785
X4.809Y-3.8785
X4.909Y-3.2785
X4.909Y-3.8785
X5.009Y-3.2785
X5.009Y-3.8785
X5.109Y-3.2785
X5.109Y-3.8785
X5.209Y-3.2785
X5.209Y-3.8785
X5.309Y-3.2785
X5.309Y-3.8785
X5.409Y-3.2785
X5.409Y-3.8785
X5.509Y-3.2785
X5.509Y-3.8785
X5.609Y-3.2785
X5.609Y-3.8785
X5.709Y-3.2785
X5.709Y-3.8785
X5.809Y-3.2785
X5.809Y-3.8785
X5.909Y-3.2785
X5.909Y-3.8785
X6.009Y-3.2785
X6.009Y-3.8785
X6.109Y-3.2785
X6.109Y-3.8785
X6.209Y-3.2785
X6.209Y-3.8785
X6.309Y-3.2785
X6.309Y-3.8785
X6.409Y-3.2785
X6.409Y-3.8785
X6.509Y-3.2785
X6.509Y-3.8785
X6.609Y-3.2785
X6.609Y-3.8785
X6.709Y-3.2785
X6.709Y-3.8785
T3
X4.85Y-3.4
X4.85Y-3.5
X4.85Y-3.65
X4.85Y-3.75
T0
M30
