G04 #@! TF.FileFunction,Copper,L2,Bot,Signal*
%FSLAX46Y46*%
G04 Gerber Fmt 4.6, Leading zero omitted, Abs format (unit mm)*
G04 Created by KiCad (PCBNEW 4.0.7) date 04/07/18 18:45:30*
%MOMM*%
%LPD*%
G01*
G04 APERTURE LIST*
%ADD10C,0.100000*%
%ADD11R,1.600000X2.400000*%
%ADD12O,1.600000X2.400000*%
%ADD13R,1.200000X0.750000*%
%ADD14R,1.700000X1.700000*%
%ADD15O,1.700000X1.700000*%
%ADD16R,1.200000X0.900000*%
%ADD17C,0.600000*%
%ADD18C,0.250000*%
%ADD19C,0.254000*%
G04 APERTURE END LIST*
D10*
D11*
X122148600Y-98513900D03*
D12*
X170408600Y-83273900D03*
X124688600Y-98513900D03*
X167868600Y-83273900D03*
X127228600Y-98513900D03*
X165328600Y-83273900D03*
X129768600Y-98513900D03*
X162788600Y-83273900D03*
X132308600Y-98513900D03*
X160248600Y-83273900D03*
X134848600Y-98513900D03*
X157708600Y-83273900D03*
X137388600Y-98513900D03*
X155168600Y-83273900D03*
X139928600Y-98513900D03*
X152628600Y-83273900D03*
X142468600Y-98513900D03*
X150088600Y-83273900D03*
X145008600Y-98513900D03*
X147548600Y-83273900D03*
X147548600Y-98513900D03*
X145008600Y-83273900D03*
X150088600Y-98513900D03*
X142468600Y-83273900D03*
X152628600Y-98513900D03*
X139928600Y-83273900D03*
X155168600Y-98513900D03*
X137388600Y-83273900D03*
X157708600Y-98513900D03*
X134848600Y-83273900D03*
X160248600Y-98513900D03*
X132308600Y-83273900D03*
X162788600Y-98513900D03*
X129768600Y-83273900D03*
X165328600Y-98513900D03*
X127228600Y-83273900D03*
X167868600Y-98513900D03*
X124688600Y-83273900D03*
X170408600Y-98513900D03*
X122148600Y-83273900D03*
D13*
X131838740Y-90957400D03*
X129938740Y-90957400D03*
X150497500Y-89598500D03*
X152397500Y-89598500D03*
D14*
X123190000Y-88900000D03*
D15*
X123190000Y-86360000D03*
D14*
X123190000Y-95250000D03*
D15*
X123190000Y-92710000D03*
D16*
X141816000Y-91440000D03*
X139616000Y-91440000D03*
X141816000Y-87884000D03*
X139616000Y-87884000D03*
X141816000Y-89662000D03*
X139616000Y-89662000D03*
X144188000Y-94234000D03*
X146388000Y-94234000D03*
X139679500Y-94234000D03*
X141879500Y-94234000D03*
X144124500Y-87884000D03*
X146324500Y-87884000D03*
D17*
X153924000Y-90551000D03*
X137764520Y-91302840D03*
X148018500Y-89535000D03*
X150812500Y-95059500D03*
X146494500Y-86614000D03*
X144081500Y-91757500D03*
X149860000Y-86614000D03*
X152527000Y-93789500D03*
X137342880Y-87894160D03*
X138109960Y-89697560D03*
X137477500Y-93281500D03*
X137297160Y-95636080D03*
X153098500Y-87630000D03*
X149034500Y-95377000D03*
X151574500Y-87439500D03*
X149631400Y-85471000D03*
X146875500Y-85471000D03*
X153670000Y-93662500D03*
X137160000Y-85725000D03*
X136992360Y-92257880D03*
D18*
X146388000Y-94234000D02*
X146388000Y-90149500D01*
X146388000Y-90149500D02*
X146748500Y-89789000D01*
X141943000Y-89789000D02*
X144335500Y-89789000D01*
X144335500Y-89789000D02*
X146748500Y-89789000D01*
X141943000Y-89789000D02*
X141816000Y-89662000D01*
X152336500Y-89662000D02*
X152082500Y-90678000D01*
X152082500Y-90678000D02*
X150368000Y-90678000D01*
X150368000Y-90678000D02*
X149034500Y-90678000D01*
X149034500Y-90678000D02*
X146748500Y-89789000D01*
X153924000Y-90551000D02*
X152336500Y-89662000D01*
X141879500Y-89598500D02*
X141816000Y-89662000D01*
X141935380Y-91389200D02*
X141935380Y-89628980D01*
X141935380Y-89628980D02*
X141879500Y-89573100D01*
X141879500Y-89573100D02*
X141902360Y-89550240D01*
X141902360Y-89550240D02*
X141902360Y-87696040D01*
X153924000Y-90551000D02*
X153883360Y-90591640D01*
X148018500Y-89535000D02*
X149418000Y-89535000D01*
X149418000Y-89535000D02*
X150431500Y-89598500D01*
X131838740Y-90957400D02*
X137419080Y-90957400D01*
X137764520Y-91302840D02*
X137419080Y-90957400D01*
X124268230Y-92663010D02*
X123236990Y-92663010D01*
X123236990Y-92663010D02*
X123190000Y-92710000D01*
X148013420Y-89540080D02*
X148018500Y-89535000D01*
X124246640Y-92684600D02*
X124268230Y-92663010D01*
X124268230Y-92663010D02*
X125074680Y-91856560D01*
X131838740Y-91843820D02*
X131838740Y-90957400D01*
X131826000Y-91856560D02*
X131838740Y-91843820D01*
X125074680Y-91856560D02*
X131826000Y-91856560D01*
X145008600Y-96852740D02*
X145008600Y-98513900D01*
X145699480Y-96161860D02*
X145008600Y-96852740D01*
X149722840Y-96161860D02*
X145699480Y-96161860D01*
X149997160Y-95887540D02*
X149722840Y-96161860D01*
X150368000Y-95567500D02*
X149997160Y-95887540D01*
X150812500Y-95059500D02*
X150368000Y-95567500D01*
X144081500Y-91757500D02*
X144081500Y-94127500D01*
X144081500Y-94127500D02*
X143975000Y-94234000D01*
X143975000Y-94234000D02*
X141879500Y-94234000D01*
X146324500Y-87884000D02*
X146324500Y-86784000D01*
X146324500Y-86784000D02*
X146494500Y-86614000D01*
X146388000Y-86720500D02*
X146494500Y-86614000D01*
X144124500Y-91800500D02*
X144081500Y-91757500D01*
X144066260Y-91742260D02*
X144081500Y-91757500D01*
X147764500Y-86614000D02*
X146494500Y-86614000D01*
X149860000Y-86614000D02*
X147764500Y-86614000D01*
X147764500Y-86614000D02*
X147734200Y-86614000D01*
X146494500Y-86614000D02*
X146474180Y-86634320D01*
X152283160Y-96319340D02*
X150088600Y-98513900D01*
X152276038Y-94679038D02*
X152283160Y-96319340D01*
X152527000Y-93789500D02*
X152276038Y-94679038D01*
X137541000Y-87696040D02*
X139702360Y-87696040D01*
X137342880Y-87894160D02*
X137541000Y-87696040D01*
X123190000Y-88900000D02*
X124411740Y-88900000D01*
X124411740Y-88900000D02*
X126469140Y-90957400D01*
X126469140Y-90957400D02*
X129938740Y-90957400D01*
X138109960Y-89697560D02*
X130347720Y-89697560D01*
X129938740Y-90106540D02*
X129938740Y-90957400D01*
X130347720Y-89697560D02*
X129938740Y-90106540D01*
X138234420Y-89573100D02*
X139679500Y-89573100D01*
X138109960Y-89697560D02*
X138234420Y-89573100D01*
X139679500Y-94234000D02*
X138430000Y-94234000D01*
X138430000Y-94234000D02*
X137477500Y-93281500D01*
X137297160Y-95636080D02*
X137297160Y-98422460D01*
X137297160Y-98422460D02*
X137388600Y-98513900D01*
X152590506Y-87311901D02*
X152628600Y-83273900D01*
X153098500Y-87630000D02*
X152590506Y-87311901D01*
X142468600Y-97241360D02*
X142468600Y-98513900D01*
X144360900Y-95349060D02*
X142468600Y-97241360D01*
X146659600Y-95349060D02*
X144360900Y-95349060D01*
X149034500Y-95377000D02*
X146659600Y-95349060D01*
X151549100Y-84734400D02*
X151549100Y-87414100D01*
X151549100Y-87414100D02*
X151574500Y-87439500D01*
X151587200Y-84772500D02*
X151549100Y-84734400D01*
X151549100Y-84734400D02*
X150088600Y-83273900D01*
X149631400Y-85471000D02*
X148640800Y-85471000D01*
X148640800Y-85471000D02*
X146875500Y-85471000D01*
X153677620Y-97464880D02*
X152628600Y-98513900D01*
X153692860Y-93685360D02*
X153677620Y-97464880D01*
X153670000Y-93662500D02*
X153692860Y-93685360D01*
X137160000Y-85725000D02*
X137205720Y-85679280D01*
X137205720Y-85679280D02*
X137388600Y-83273900D01*
X139735380Y-91389200D02*
X139059920Y-91389200D01*
X138191240Y-92257880D02*
X136992360Y-92257880D01*
X139059920Y-91389200D02*
X138191240Y-92257880D01*
X144124500Y-87884000D02*
X144124500Y-86634500D01*
X145008600Y-85750400D02*
X144188000Y-86571000D01*
X145008600Y-85750400D02*
X145008600Y-83273900D01*
X144124500Y-86634500D02*
X144188000Y-86571000D01*
X144932400Y-83350100D02*
X145008600Y-83273900D01*
D19*
G36*
X171958000Y-100203000D02*
X171066429Y-100203000D01*
X171423298Y-99964548D01*
X171734367Y-99499001D01*
X171843600Y-98949850D01*
X171843600Y-98077950D01*
X171734367Y-97528799D01*
X171423298Y-97063252D01*
X170957751Y-96752183D01*
X170408600Y-96642950D01*
X169859449Y-96752183D01*
X169393902Y-97063252D01*
X169138600Y-97445338D01*
X168883298Y-97063252D01*
X168417751Y-96752183D01*
X167868600Y-96642950D01*
X167319449Y-96752183D01*
X166853902Y-97063252D01*
X166598600Y-97445338D01*
X166343298Y-97063252D01*
X165877751Y-96752183D01*
X165328600Y-96642950D01*
X164779449Y-96752183D01*
X164313902Y-97063252D01*
X164058600Y-97445338D01*
X163803298Y-97063252D01*
X163337751Y-96752183D01*
X162788600Y-96642950D01*
X162239449Y-96752183D01*
X161773902Y-97063252D01*
X161518600Y-97445338D01*
X161263298Y-97063252D01*
X160797751Y-96752183D01*
X160248600Y-96642950D01*
X159699449Y-96752183D01*
X159233902Y-97063252D01*
X158978600Y-97445338D01*
X158723298Y-97063252D01*
X158257751Y-96752183D01*
X157708600Y-96642950D01*
X157159449Y-96752183D01*
X156693902Y-97063252D01*
X156438600Y-97445338D01*
X156183298Y-97063252D01*
X155717751Y-96752183D01*
X155168600Y-96642950D01*
X154619449Y-96752183D01*
X154440017Y-96872076D01*
X154450774Y-94204225D01*
X154462192Y-94192827D01*
X154604838Y-93849299D01*
X154605162Y-93477333D01*
X154463117Y-93133557D01*
X154200327Y-92870308D01*
X153856799Y-92727662D01*
X153484833Y-92727338D01*
X153141057Y-92869383D01*
X153025957Y-92984282D01*
X152713799Y-92854662D01*
X152341833Y-92854338D01*
X151998057Y-92996383D01*
X151734808Y-93259173D01*
X151592162Y-93602701D01*
X151591838Y-93974667D01*
X151647254Y-94108785D01*
X151545306Y-94470141D01*
X151342827Y-94267308D01*
X150999299Y-94124662D01*
X150627333Y-94124338D01*
X150283557Y-94266383D01*
X150020308Y-94529173D01*
X149877662Y-94872701D01*
X149877578Y-94968972D01*
X149827617Y-94848057D01*
X149564827Y-94584808D01*
X149221299Y-94442162D01*
X148849333Y-94441838D01*
X148505557Y-94583883D01*
X148478981Y-94610412D01*
X147635440Y-94600488D01*
X147635440Y-93784000D01*
X147591162Y-93548683D01*
X147452090Y-93332559D01*
X147239890Y-93187569D01*
X147148000Y-93168961D01*
X147148000Y-90759808D01*
X148759040Y-91386323D01*
X148897050Y-91410659D01*
X149034500Y-91438000D01*
X152082500Y-91438000D01*
X152137923Y-91426976D01*
X152194359Y-91429722D01*
X152282011Y-91398314D01*
X152373339Y-91380148D01*
X152420323Y-91348755D01*
X152473517Y-91329694D01*
X152542480Y-91267132D01*
X152619901Y-91215401D01*
X152651295Y-91168417D01*
X152693145Y-91130451D01*
X152732918Y-91046259D01*
X152784648Y-90968839D01*
X152795672Y-90913419D01*
X152819808Y-90862327D01*
X152832663Y-90810906D01*
X153076032Y-90947192D01*
X153130883Y-91079943D01*
X153393673Y-91343192D01*
X153737201Y-91485838D01*
X154109167Y-91486162D01*
X154452943Y-91344117D01*
X154716192Y-91081327D01*
X154858838Y-90737799D01*
X154859162Y-90365833D01*
X154717117Y-90022057D01*
X154454327Y-89758808D01*
X154110799Y-89616162D01*
X153809632Y-89615900D01*
X153644940Y-89523672D01*
X153644940Y-89223500D01*
X153600662Y-88988183D01*
X153461590Y-88772059D01*
X153249390Y-88627069D01*
X152997500Y-88576060D01*
X151797500Y-88576060D01*
X151562183Y-88620338D01*
X151458854Y-88686829D01*
X151457198Y-88685173D01*
X151223809Y-88588500D01*
X150783250Y-88588500D01*
X150624500Y-88747250D01*
X150624500Y-89471500D01*
X150644500Y-89471500D01*
X150644500Y-89725500D01*
X150624500Y-89725500D01*
X150624500Y-89745500D01*
X150370500Y-89745500D01*
X150370500Y-89725500D01*
X149421250Y-89725500D01*
X149262500Y-89884250D01*
X149262500Y-89918000D01*
X149177078Y-89918000D01*
X147066424Y-89097190D01*
X149262500Y-89097190D01*
X149262500Y-89312750D01*
X149421250Y-89471500D01*
X150370500Y-89471500D01*
X150370500Y-88747250D01*
X150211750Y-88588500D01*
X149771191Y-88588500D01*
X149537802Y-88685173D01*
X149359173Y-88863801D01*
X149262500Y-89097190D01*
X147066424Y-89097190D01*
X147023959Y-89080676D01*
X146885931Y-89056337D01*
X146748500Y-89029000D01*
X143029006Y-89029000D01*
X143019162Y-88976683D01*
X142886393Y-88770353D01*
X142971011Y-88646511D01*
X143060410Y-88785441D01*
X143272610Y-88930431D01*
X143524500Y-88981440D01*
X144724500Y-88981440D01*
X144959817Y-88937162D01*
X145175941Y-88798090D01*
X145223634Y-88728289D01*
X145260410Y-88785441D01*
X145472610Y-88930431D01*
X145724500Y-88981440D01*
X146924500Y-88981440D01*
X147159817Y-88937162D01*
X147375941Y-88798090D01*
X147520931Y-88585890D01*
X147571940Y-88334000D01*
X147571940Y-87434000D01*
X147560650Y-87374000D01*
X149297537Y-87374000D01*
X149329673Y-87406192D01*
X149673201Y-87548838D01*
X150045167Y-87549162D01*
X150388943Y-87407117D01*
X150652192Y-87144327D01*
X150789100Y-86814618D01*
X150789100Y-86902393D01*
X150782308Y-86909173D01*
X150639662Y-87252701D01*
X150639338Y-87624667D01*
X150781383Y-87968443D01*
X151044173Y-88231692D01*
X151387701Y-88374338D01*
X151759667Y-88374662D01*
X152103443Y-88232617D01*
X152267964Y-88068383D01*
X152305383Y-88158943D01*
X152568173Y-88422192D01*
X152911701Y-88564838D01*
X153283667Y-88565162D01*
X153627443Y-88423117D01*
X153890692Y-88160327D01*
X154033338Y-87816799D01*
X154033662Y-87444833D01*
X153891617Y-87101057D01*
X153628827Y-86837808D01*
X153356081Y-86724553D01*
X153373246Y-84904991D01*
X153643298Y-84724548D01*
X153898600Y-84342462D01*
X154153902Y-84724548D01*
X154619449Y-85035617D01*
X155168600Y-85144850D01*
X155717751Y-85035617D01*
X156183298Y-84724548D01*
X156438600Y-84342462D01*
X156693902Y-84724548D01*
X157159449Y-85035617D01*
X157708600Y-85144850D01*
X158257751Y-85035617D01*
X158723298Y-84724548D01*
X158978600Y-84342462D01*
X159233902Y-84724548D01*
X159699449Y-85035617D01*
X160248600Y-85144850D01*
X160797751Y-85035617D01*
X161263298Y-84724548D01*
X161518600Y-84342462D01*
X161773902Y-84724548D01*
X162239449Y-85035617D01*
X162788600Y-85144850D01*
X163337751Y-85035617D01*
X163803298Y-84724548D01*
X164058600Y-84342462D01*
X164313902Y-84724548D01*
X164779449Y-85035617D01*
X165328600Y-85144850D01*
X165877751Y-85035617D01*
X166343298Y-84724548D01*
X166598600Y-84342462D01*
X166853902Y-84724548D01*
X167319449Y-85035617D01*
X167868600Y-85144850D01*
X168417751Y-85035617D01*
X168883298Y-84724548D01*
X169138600Y-84342462D01*
X169393902Y-84724548D01*
X169859449Y-85035617D01*
X170408600Y-85144850D01*
X170957751Y-85035617D01*
X171423298Y-84724548D01*
X171734367Y-84259001D01*
X171843600Y-83709850D01*
X171843600Y-82837950D01*
X171734367Y-82288799D01*
X171569461Y-82042000D01*
X171958000Y-82042000D01*
X171958000Y-100203000D01*
X171958000Y-100203000D01*
G37*
X171958000Y-100203000D02*
X171066429Y-100203000D01*
X171423298Y-99964548D01*
X171734367Y-99499001D01*
X171843600Y-98949850D01*
X171843600Y-98077950D01*
X171734367Y-97528799D01*
X171423298Y-97063252D01*
X170957751Y-96752183D01*
X170408600Y-96642950D01*
X169859449Y-96752183D01*
X169393902Y-97063252D01*
X169138600Y-97445338D01*
X168883298Y-97063252D01*
X168417751Y-96752183D01*
X167868600Y-96642950D01*
X167319449Y-96752183D01*
X166853902Y-97063252D01*
X166598600Y-97445338D01*
X166343298Y-97063252D01*
X165877751Y-96752183D01*
X165328600Y-96642950D01*
X164779449Y-96752183D01*
X164313902Y-97063252D01*
X164058600Y-97445338D01*
X163803298Y-97063252D01*
X163337751Y-96752183D01*
X162788600Y-96642950D01*
X162239449Y-96752183D01*
X161773902Y-97063252D01*
X161518600Y-97445338D01*
X161263298Y-97063252D01*
X160797751Y-96752183D01*
X160248600Y-96642950D01*
X159699449Y-96752183D01*
X159233902Y-97063252D01*
X158978600Y-97445338D01*
X158723298Y-97063252D01*
X158257751Y-96752183D01*
X157708600Y-96642950D01*
X157159449Y-96752183D01*
X156693902Y-97063252D01*
X156438600Y-97445338D01*
X156183298Y-97063252D01*
X155717751Y-96752183D01*
X155168600Y-96642950D01*
X154619449Y-96752183D01*
X154440017Y-96872076D01*
X154450774Y-94204225D01*
X154462192Y-94192827D01*
X154604838Y-93849299D01*
X154605162Y-93477333D01*
X154463117Y-93133557D01*
X154200327Y-92870308D01*
X153856799Y-92727662D01*
X153484833Y-92727338D01*
X153141057Y-92869383D01*
X153025957Y-92984282D01*
X152713799Y-92854662D01*
X152341833Y-92854338D01*
X151998057Y-92996383D01*
X151734808Y-93259173D01*
X151592162Y-93602701D01*
X151591838Y-93974667D01*
X151647254Y-94108785D01*
X151545306Y-94470141D01*
X151342827Y-94267308D01*
X150999299Y-94124662D01*
X150627333Y-94124338D01*
X150283557Y-94266383D01*
X150020308Y-94529173D01*
X149877662Y-94872701D01*
X149877578Y-94968972D01*
X149827617Y-94848057D01*
X149564827Y-94584808D01*
X149221299Y-94442162D01*
X148849333Y-94441838D01*
X148505557Y-94583883D01*
X148478981Y-94610412D01*
X147635440Y-94600488D01*
X147635440Y-93784000D01*
X147591162Y-93548683D01*
X147452090Y-93332559D01*
X147239890Y-93187569D01*
X147148000Y-93168961D01*
X147148000Y-90759808D01*
X148759040Y-91386323D01*
X148897050Y-91410659D01*
X149034500Y-91438000D01*
X152082500Y-91438000D01*
X152137923Y-91426976D01*
X152194359Y-91429722D01*
X152282011Y-91398314D01*
X152373339Y-91380148D01*
X152420323Y-91348755D01*
X152473517Y-91329694D01*
X152542480Y-91267132D01*
X152619901Y-91215401D01*
X152651295Y-91168417D01*
X152693145Y-91130451D01*
X152732918Y-91046259D01*
X152784648Y-90968839D01*
X152795672Y-90913419D01*
X152819808Y-90862327D01*
X152832663Y-90810906D01*
X153076032Y-90947192D01*
X153130883Y-91079943D01*
X153393673Y-91343192D01*
X153737201Y-91485838D01*
X154109167Y-91486162D01*
X154452943Y-91344117D01*
X154716192Y-91081327D01*
X154858838Y-90737799D01*
X154859162Y-90365833D01*
X154717117Y-90022057D01*
X154454327Y-89758808D01*
X154110799Y-89616162D01*
X153809632Y-89615900D01*
X153644940Y-89523672D01*
X153644940Y-89223500D01*
X153600662Y-88988183D01*
X153461590Y-88772059D01*
X153249390Y-88627069D01*
X152997500Y-88576060D01*
X151797500Y-88576060D01*
X151562183Y-88620338D01*
X151458854Y-88686829D01*
X151457198Y-88685173D01*
X151223809Y-88588500D01*
X150783250Y-88588500D01*
X150624500Y-88747250D01*
X150624500Y-89471500D01*
X150644500Y-89471500D01*
X150644500Y-89725500D01*
X150624500Y-89725500D01*
X150624500Y-89745500D01*
X150370500Y-89745500D01*
X150370500Y-89725500D01*
X149421250Y-89725500D01*
X149262500Y-89884250D01*
X149262500Y-89918000D01*
X149177078Y-89918000D01*
X147066424Y-89097190D01*
X149262500Y-89097190D01*
X149262500Y-89312750D01*
X149421250Y-89471500D01*
X150370500Y-89471500D01*
X150370500Y-88747250D01*
X150211750Y-88588500D01*
X149771191Y-88588500D01*
X149537802Y-88685173D01*
X149359173Y-88863801D01*
X149262500Y-89097190D01*
X147066424Y-89097190D01*
X147023959Y-89080676D01*
X146885931Y-89056337D01*
X146748500Y-89029000D01*
X143029006Y-89029000D01*
X143019162Y-88976683D01*
X142886393Y-88770353D01*
X142971011Y-88646511D01*
X143060410Y-88785441D01*
X143272610Y-88930431D01*
X143524500Y-88981440D01*
X144724500Y-88981440D01*
X144959817Y-88937162D01*
X145175941Y-88798090D01*
X145223634Y-88728289D01*
X145260410Y-88785441D01*
X145472610Y-88930431D01*
X145724500Y-88981440D01*
X146924500Y-88981440D01*
X147159817Y-88937162D01*
X147375941Y-88798090D01*
X147520931Y-88585890D01*
X147571940Y-88334000D01*
X147571940Y-87434000D01*
X147560650Y-87374000D01*
X149297537Y-87374000D01*
X149329673Y-87406192D01*
X149673201Y-87548838D01*
X150045167Y-87549162D01*
X150388943Y-87407117D01*
X150652192Y-87144327D01*
X150789100Y-86814618D01*
X150789100Y-86902393D01*
X150782308Y-86909173D01*
X150639662Y-87252701D01*
X150639338Y-87624667D01*
X150781383Y-87968443D01*
X151044173Y-88231692D01*
X151387701Y-88374338D01*
X151759667Y-88374662D01*
X152103443Y-88232617D01*
X152267964Y-88068383D01*
X152305383Y-88158943D01*
X152568173Y-88422192D01*
X152911701Y-88564838D01*
X153283667Y-88565162D01*
X153627443Y-88423117D01*
X153890692Y-88160327D01*
X154033338Y-87816799D01*
X154033662Y-87444833D01*
X153891617Y-87101057D01*
X153628827Y-86837808D01*
X153356081Y-86724553D01*
X153373246Y-84904991D01*
X153643298Y-84724548D01*
X153898600Y-84342462D01*
X154153902Y-84724548D01*
X154619449Y-85035617D01*
X155168600Y-85144850D01*
X155717751Y-85035617D01*
X156183298Y-84724548D01*
X156438600Y-84342462D01*
X156693902Y-84724548D01*
X157159449Y-85035617D01*
X157708600Y-85144850D01*
X158257751Y-85035617D01*
X158723298Y-84724548D01*
X158978600Y-84342462D01*
X159233902Y-84724548D01*
X159699449Y-85035617D01*
X160248600Y-85144850D01*
X160797751Y-85035617D01*
X161263298Y-84724548D01*
X161518600Y-84342462D01*
X161773902Y-84724548D01*
X162239449Y-85035617D01*
X162788600Y-85144850D01*
X163337751Y-85035617D01*
X163803298Y-84724548D01*
X164058600Y-84342462D01*
X164313902Y-84724548D01*
X164779449Y-85035617D01*
X165328600Y-85144850D01*
X165877751Y-85035617D01*
X166343298Y-84724548D01*
X166598600Y-84342462D01*
X166853902Y-84724548D01*
X167319449Y-85035617D01*
X167868600Y-85144850D01*
X168417751Y-85035617D01*
X168883298Y-84724548D01*
X169138600Y-84342462D01*
X169393902Y-84724548D01*
X169859449Y-85035617D01*
X170408600Y-85144850D01*
X170957751Y-85035617D01*
X171423298Y-84724548D01*
X171734367Y-84259001D01*
X171843600Y-83709850D01*
X171843600Y-82837950D01*
X171734367Y-82288799D01*
X171569461Y-82042000D01*
X171958000Y-82042000D01*
X171958000Y-100203000D01*
G36*
X147675600Y-98386900D02*
X147695600Y-98386900D01*
X147695600Y-98640900D01*
X147675600Y-98640900D01*
X147675600Y-98660900D01*
X147421600Y-98660900D01*
X147421600Y-98640900D01*
X147401600Y-98640900D01*
X147401600Y-98386900D01*
X147421600Y-98386900D01*
X147421600Y-98366900D01*
X147675600Y-98366900D01*
X147675600Y-98386900D01*
X147675600Y-98386900D01*
G37*
X147675600Y-98386900D02*
X147695600Y-98386900D01*
X147695600Y-98640900D01*
X147675600Y-98640900D01*
X147675600Y-98660900D01*
X147421600Y-98660900D01*
X147421600Y-98640900D01*
X147401600Y-98640900D01*
X147401600Y-98386900D01*
X147421600Y-98386900D01*
X147421600Y-98366900D01*
X147675600Y-98366900D01*
X147675600Y-98386900D01*
G36*
X120822833Y-84259001D02*
X121133902Y-84724548D01*
X121599449Y-85035617D01*
X122148600Y-85144850D01*
X122446671Y-85085560D01*
X122110853Y-85309946D01*
X121788946Y-85791715D01*
X121675907Y-86360000D01*
X121788946Y-86928285D01*
X122110853Y-87410054D01*
X122152452Y-87437850D01*
X122104683Y-87446838D01*
X121888559Y-87585910D01*
X121743569Y-87798110D01*
X121692560Y-88050000D01*
X121692560Y-89750000D01*
X121736838Y-89985317D01*
X121875910Y-90201441D01*
X122088110Y-90346431D01*
X122340000Y-90397440D01*
X124040000Y-90397440D01*
X124275317Y-90353162D01*
X124491441Y-90214090D01*
X124556220Y-90119282D01*
X125931739Y-91494801D01*
X126178301Y-91659548D01*
X126469140Y-91717400D01*
X128831896Y-91717400D01*
X128874650Y-91783841D01*
X129086850Y-91928831D01*
X129338740Y-91979840D01*
X130538740Y-91979840D01*
X130774057Y-91935562D01*
X130877386Y-91869071D01*
X130879042Y-91870727D01*
X131112431Y-91967400D01*
X131552990Y-91967400D01*
X131711740Y-91808650D01*
X131711740Y-91084400D01*
X131965740Y-91084400D01*
X131965740Y-91808650D01*
X132124490Y-91967400D01*
X132565049Y-91967400D01*
X132798438Y-91870727D01*
X132977067Y-91692099D01*
X133073740Y-91458710D01*
X133073740Y-91243150D01*
X132914990Y-91084400D01*
X131965740Y-91084400D01*
X131711740Y-91084400D01*
X131691740Y-91084400D01*
X131691740Y-90830400D01*
X131711740Y-90830400D01*
X131711740Y-90810400D01*
X131965740Y-90810400D01*
X131965740Y-90830400D01*
X132914990Y-90830400D01*
X133073740Y-90671650D01*
X133073740Y-90457560D01*
X137547497Y-90457560D01*
X137579633Y-90489752D01*
X137923161Y-90632398D01*
X138295127Y-90632722D01*
X138533194Y-90534355D01*
X138545607Y-90553647D01*
X138419569Y-90738110D01*
X138368560Y-90990000D01*
X138368560Y-91005758D01*
X137876438Y-91497880D01*
X137554823Y-91497880D01*
X137522687Y-91465688D01*
X137179159Y-91323042D01*
X136807193Y-91322718D01*
X136463417Y-91464763D01*
X136200168Y-91727553D01*
X136057522Y-92071081D01*
X136057198Y-92443047D01*
X136199243Y-92786823D01*
X136462033Y-93050072D01*
X136546611Y-93085192D01*
X136542662Y-93094701D01*
X136542338Y-93466667D01*
X136684383Y-93810443D01*
X136947173Y-94073692D01*
X137290701Y-94216338D01*
X137337577Y-94216379D01*
X137892599Y-94771401D01*
X138139160Y-94936148D01*
X138187414Y-94945746D01*
X138430000Y-94994000D01*
X138524395Y-94994000D01*
X138615410Y-95135441D01*
X138827610Y-95280431D01*
X139079500Y-95331440D01*
X140279500Y-95331440D01*
X140514817Y-95287162D01*
X140730941Y-95148090D01*
X140778634Y-95078289D01*
X140815410Y-95135441D01*
X141027610Y-95280431D01*
X141279500Y-95331440D01*
X142479500Y-95331440D01*
X142714817Y-95287162D01*
X142930941Y-95148090D01*
X143034511Y-94996511D01*
X143123910Y-95135441D01*
X143336110Y-95280431D01*
X143351592Y-95283566D01*
X141931199Y-96703959D01*
X141882465Y-96776895D01*
X141453902Y-97063252D01*
X141198600Y-97445338D01*
X140943298Y-97063252D01*
X140477751Y-96752183D01*
X139928600Y-96642950D01*
X139379449Y-96752183D01*
X138913902Y-97063252D01*
X138658600Y-97445338D01*
X138403298Y-97063252D01*
X138057160Y-96831970D01*
X138057160Y-96198543D01*
X138089352Y-96166407D01*
X138231998Y-95822879D01*
X138232322Y-95450913D01*
X138090277Y-95107137D01*
X137827487Y-94843888D01*
X137483959Y-94701242D01*
X137111993Y-94700918D01*
X136768217Y-94842963D01*
X136504968Y-95105753D01*
X136362322Y-95449281D01*
X136361998Y-95821247D01*
X136504043Y-96165023D01*
X136537160Y-96198198D01*
X136537160Y-96954166D01*
X136373902Y-97063252D01*
X136118600Y-97445338D01*
X135863298Y-97063252D01*
X135397751Y-96752183D01*
X134848600Y-96642950D01*
X134299449Y-96752183D01*
X133833902Y-97063252D01*
X133578600Y-97445338D01*
X133323298Y-97063252D01*
X132857751Y-96752183D01*
X132308600Y-96642950D01*
X131759449Y-96752183D01*
X131293902Y-97063252D01*
X131038600Y-97445338D01*
X130783298Y-97063252D01*
X130317751Y-96752183D01*
X129768600Y-96642950D01*
X129219449Y-96752183D01*
X128753902Y-97063252D01*
X128498600Y-97445338D01*
X128243298Y-97063252D01*
X127777751Y-96752183D01*
X127228600Y-96642950D01*
X126679449Y-96752183D01*
X126213902Y-97063252D01*
X125958600Y-97445338D01*
X125703298Y-97063252D01*
X125237751Y-96752183D01*
X124688600Y-96642950D01*
X124139449Y-96752183D01*
X123673902Y-97063252D01*
X123576349Y-97209250D01*
X123551762Y-97078583D01*
X123412690Y-96862459D01*
X123244354Y-96747440D01*
X124040000Y-96747440D01*
X124275317Y-96703162D01*
X124491441Y-96564090D01*
X124636431Y-96351890D01*
X124687440Y-96100000D01*
X124687440Y-94400000D01*
X124643162Y-94164683D01*
X124504090Y-93948559D01*
X124291890Y-93803569D01*
X124183893Y-93781699D01*
X124461645Y-93476924D01*
X124631476Y-93066890D01*
X124510155Y-92837000D01*
X123317000Y-92837000D01*
X123317000Y-92857000D01*
X123063000Y-92857000D01*
X123063000Y-92837000D01*
X121869845Y-92837000D01*
X121748524Y-93066890D01*
X121918355Y-93476924D01*
X122194501Y-93779937D01*
X122104683Y-93796838D01*
X121888559Y-93935910D01*
X121743569Y-94148110D01*
X121692560Y-94400000D01*
X121692560Y-96100000D01*
X121736838Y-96335317D01*
X121875910Y-96551441D01*
X122044246Y-96666460D01*
X121348600Y-96666460D01*
X121113283Y-96710738D01*
X120897159Y-96849810D01*
X120777000Y-97025669D01*
X120777000Y-92353110D01*
X121748524Y-92353110D01*
X121869845Y-92583000D01*
X123063000Y-92583000D01*
X123063000Y-91389181D01*
X123317000Y-91389181D01*
X123317000Y-92583000D01*
X124510155Y-92583000D01*
X124631476Y-92353110D01*
X124461645Y-91943076D01*
X124071358Y-91514817D01*
X123546892Y-91268514D01*
X123317000Y-91389181D01*
X123063000Y-91389181D01*
X122833108Y-91268514D01*
X122308642Y-91514817D01*
X121918355Y-91943076D01*
X121748524Y-92353110D01*
X120777000Y-92353110D01*
X120777000Y-84028583D01*
X120822833Y-84259001D01*
X120822833Y-84259001D01*
G37*
X120822833Y-84259001D02*
X121133902Y-84724548D01*
X121599449Y-85035617D01*
X122148600Y-85144850D01*
X122446671Y-85085560D01*
X122110853Y-85309946D01*
X121788946Y-85791715D01*
X121675907Y-86360000D01*
X121788946Y-86928285D01*
X122110853Y-87410054D01*
X122152452Y-87437850D01*
X122104683Y-87446838D01*
X121888559Y-87585910D01*
X121743569Y-87798110D01*
X121692560Y-88050000D01*
X121692560Y-89750000D01*
X121736838Y-89985317D01*
X121875910Y-90201441D01*
X122088110Y-90346431D01*
X122340000Y-90397440D01*
X124040000Y-90397440D01*
X124275317Y-90353162D01*
X124491441Y-90214090D01*
X124556220Y-90119282D01*
X125931739Y-91494801D01*
X126178301Y-91659548D01*
X126469140Y-91717400D01*
X128831896Y-91717400D01*
X128874650Y-91783841D01*
X129086850Y-91928831D01*
X129338740Y-91979840D01*
X130538740Y-91979840D01*
X130774057Y-91935562D01*
X130877386Y-91869071D01*
X130879042Y-91870727D01*
X131112431Y-91967400D01*
X131552990Y-91967400D01*
X131711740Y-91808650D01*
X131711740Y-91084400D01*
X131965740Y-91084400D01*
X131965740Y-91808650D01*
X132124490Y-91967400D01*
X132565049Y-91967400D01*
X132798438Y-91870727D01*
X132977067Y-91692099D01*
X133073740Y-91458710D01*
X133073740Y-91243150D01*
X132914990Y-91084400D01*
X131965740Y-91084400D01*
X131711740Y-91084400D01*
X131691740Y-91084400D01*
X131691740Y-90830400D01*
X131711740Y-90830400D01*
X131711740Y-90810400D01*
X131965740Y-90810400D01*
X131965740Y-90830400D01*
X132914990Y-90830400D01*
X133073740Y-90671650D01*
X133073740Y-90457560D01*
X137547497Y-90457560D01*
X137579633Y-90489752D01*
X137923161Y-90632398D01*
X138295127Y-90632722D01*
X138533194Y-90534355D01*
X138545607Y-90553647D01*
X138419569Y-90738110D01*
X138368560Y-90990000D01*
X138368560Y-91005758D01*
X137876438Y-91497880D01*
X137554823Y-91497880D01*
X137522687Y-91465688D01*
X137179159Y-91323042D01*
X136807193Y-91322718D01*
X136463417Y-91464763D01*
X136200168Y-91727553D01*
X136057522Y-92071081D01*
X136057198Y-92443047D01*
X136199243Y-92786823D01*
X136462033Y-93050072D01*
X136546611Y-93085192D01*
X136542662Y-93094701D01*
X136542338Y-93466667D01*
X136684383Y-93810443D01*
X136947173Y-94073692D01*
X137290701Y-94216338D01*
X137337577Y-94216379D01*
X137892599Y-94771401D01*
X138139160Y-94936148D01*
X138187414Y-94945746D01*
X138430000Y-94994000D01*
X138524395Y-94994000D01*
X138615410Y-95135441D01*
X138827610Y-95280431D01*
X139079500Y-95331440D01*
X140279500Y-95331440D01*
X140514817Y-95287162D01*
X140730941Y-95148090D01*
X140778634Y-95078289D01*
X140815410Y-95135441D01*
X141027610Y-95280431D01*
X141279500Y-95331440D01*
X142479500Y-95331440D01*
X142714817Y-95287162D01*
X142930941Y-95148090D01*
X143034511Y-94996511D01*
X143123910Y-95135441D01*
X143336110Y-95280431D01*
X143351592Y-95283566D01*
X141931199Y-96703959D01*
X141882465Y-96776895D01*
X141453902Y-97063252D01*
X141198600Y-97445338D01*
X140943298Y-97063252D01*
X140477751Y-96752183D01*
X139928600Y-96642950D01*
X139379449Y-96752183D01*
X138913902Y-97063252D01*
X138658600Y-97445338D01*
X138403298Y-97063252D01*
X138057160Y-96831970D01*
X138057160Y-96198543D01*
X138089352Y-96166407D01*
X138231998Y-95822879D01*
X138232322Y-95450913D01*
X138090277Y-95107137D01*
X137827487Y-94843888D01*
X137483959Y-94701242D01*
X137111993Y-94700918D01*
X136768217Y-94842963D01*
X136504968Y-95105753D01*
X136362322Y-95449281D01*
X136361998Y-95821247D01*
X136504043Y-96165023D01*
X136537160Y-96198198D01*
X136537160Y-96954166D01*
X136373902Y-97063252D01*
X136118600Y-97445338D01*
X135863298Y-97063252D01*
X135397751Y-96752183D01*
X134848600Y-96642950D01*
X134299449Y-96752183D01*
X133833902Y-97063252D01*
X133578600Y-97445338D01*
X133323298Y-97063252D01*
X132857751Y-96752183D01*
X132308600Y-96642950D01*
X131759449Y-96752183D01*
X131293902Y-97063252D01*
X131038600Y-97445338D01*
X130783298Y-97063252D01*
X130317751Y-96752183D01*
X129768600Y-96642950D01*
X129219449Y-96752183D01*
X128753902Y-97063252D01*
X128498600Y-97445338D01*
X128243298Y-97063252D01*
X127777751Y-96752183D01*
X127228600Y-96642950D01*
X126679449Y-96752183D01*
X126213902Y-97063252D01*
X125958600Y-97445338D01*
X125703298Y-97063252D01*
X125237751Y-96752183D01*
X124688600Y-96642950D01*
X124139449Y-96752183D01*
X123673902Y-97063252D01*
X123576349Y-97209250D01*
X123551762Y-97078583D01*
X123412690Y-96862459D01*
X123244354Y-96747440D01*
X124040000Y-96747440D01*
X124275317Y-96703162D01*
X124491441Y-96564090D01*
X124636431Y-96351890D01*
X124687440Y-96100000D01*
X124687440Y-94400000D01*
X124643162Y-94164683D01*
X124504090Y-93948559D01*
X124291890Y-93803569D01*
X124183893Y-93781699D01*
X124461645Y-93476924D01*
X124631476Y-93066890D01*
X124510155Y-92837000D01*
X123317000Y-92837000D01*
X123317000Y-92857000D01*
X123063000Y-92857000D01*
X123063000Y-92837000D01*
X121869845Y-92837000D01*
X121748524Y-93066890D01*
X121918355Y-93476924D01*
X122194501Y-93779937D01*
X122104683Y-93796838D01*
X121888559Y-93935910D01*
X121743569Y-94148110D01*
X121692560Y-94400000D01*
X121692560Y-96100000D01*
X121736838Y-96335317D01*
X121875910Y-96551441D01*
X122044246Y-96666460D01*
X121348600Y-96666460D01*
X121113283Y-96710738D01*
X120897159Y-96849810D01*
X120777000Y-97025669D01*
X120777000Y-92353110D01*
X121748524Y-92353110D01*
X121869845Y-92583000D01*
X123063000Y-92583000D01*
X123063000Y-91389181D01*
X123317000Y-91389181D01*
X123317000Y-92583000D01*
X124510155Y-92583000D01*
X124631476Y-92353110D01*
X124461645Y-91943076D01*
X124071358Y-91514817D01*
X123546892Y-91268514D01*
X123317000Y-91389181D01*
X123063000Y-91389181D01*
X122833108Y-91268514D01*
X122308642Y-91514817D01*
X121918355Y-91943076D01*
X121748524Y-92353110D01*
X120777000Y-92353110D01*
X120777000Y-84028583D01*
X120822833Y-84259001D01*
G36*
X147675600Y-83146900D02*
X147695600Y-83146900D01*
X147695600Y-83400900D01*
X147675600Y-83400900D01*
X147675600Y-83420900D01*
X147421600Y-83420900D01*
X147421600Y-83400900D01*
X147401600Y-83400900D01*
X147401600Y-83146900D01*
X147421600Y-83146900D01*
X147421600Y-83126900D01*
X147675600Y-83126900D01*
X147675600Y-83146900D01*
X147675600Y-83146900D01*
G37*
X147675600Y-83146900D02*
X147695600Y-83146900D01*
X147695600Y-83400900D01*
X147675600Y-83400900D01*
X147675600Y-83420900D01*
X147421600Y-83420900D01*
X147421600Y-83400900D01*
X147401600Y-83400900D01*
X147401600Y-83146900D01*
X147421600Y-83146900D01*
X147421600Y-83126900D01*
X147675600Y-83126900D01*
X147675600Y-83146900D01*
M02*
