G04 #@! TF.FileFunction,Legend,Bot*
%FSLAX46Y46*%
G04 Gerber Fmt 4.6, Leading zero omitted, Abs format (unit mm)*
G04 Created by KiCad (PCBNEW 4.0.7) date 04/07/18 18:45:30*
%MOMM*%
%LPD*%
G01*
G04 APERTURE LIST*
%ADD10C,0.100000*%
%ADD11C,0.300000*%
%ADD12C,0.120000*%
%ADD13C,0.150000*%
G04 APERTURE END LIST*
D10*
D11*
X170997714Y-94145571D02*
X171497714Y-93431286D01*
X171854857Y-94145571D02*
X171854857Y-92645571D01*
X171283429Y-92645571D01*
X171140571Y-92717000D01*
X171069143Y-92788429D01*
X170997714Y-92931286D01*
X170997714Y-93145571D01*
X171069143Y-93288429D01*
X171140571Y-93359857D01*
X171283429Y-93431286D01*
X171854857Y-93431286D01*
X169712000Y-93145571D02*
X169712000Y-94145571D01*
X170069143Y-92574143D02*
X170426286Y-93645571D01*
X169497714Y-93645571D01*
X168854858Y-94074143D02*
X168854858Y-94145571D01*
X168926286Y-94288429D01*
X168997715Y-94359857D01*
X167354857Y-94145571D02*
X167854857Y-93431286D01*
X168212000Y-94145571D02*
X168212000Y-92645571D01*
X167640572Y-92645571D01*
X167497714Y-92717000D01*
X167426286Y-92788429D01*
X167354857Y-92931286D01*
X167354857Y-93145571D01*
X167426286Y-93288429D01*
X167497714Y-93359857D01*
X167640572Y-93431286D01*
X168212000Y-93431286D01*
X165997714Y-92645571D02*
X166712000Y-92645571D01*
X166783429Y-93359857D01*
X166712000Y-93288429D01*
X166569143Y-93217000D01*
X166212000Y-93217000D01*
X166069143Y-93288429D01*
X165997714Y-93359857D01*
X165926286Y-93502714D01*
X165926286Y-93859857D01*
X165997714Y-94002714D01*
X166069143Y-94074143D01*
X166212000Y-94145571D01*
X166569143Y-94145571D01*
X166712000Y-94074143D01*
X166783429Y-94002714D01*
X164140572Y-93359857D02*
X162997715Y-93359857D01*
X162997715Y-93788429D02*
X164140572Y-93788429D01*
X160926286Y-94145571D02*
X161069144Y-94074143D01*
X161140572Y-94002714D01*
X161212001Y-93859857D01*
X161212001Y-93431286D01*
X161140572Y-93288429D01*
X161069144Y-93217000D01*
X160926286Y-93145571D01*
X160712001Y-93145571D01*
X160569144Y-93217000D01*
X160497715Y-93288429D01*
X160426286Y-93431286D01*
X160426286Y-93859857D01*
X160497715Y-94002714D01*
X160569144Y-94074143D01*
X160712001Y-94145571D01*
X160926286Y-94145571D01*
X159569143Y-94145571D02*
X159712001Y-94074143D01*
X159783429Y-93931286D01*
X159783429Y-92645571D01*
X158354858Y-94145571D02*
X158354858Y-92645571D01*
X158354858Y-94074143D02*
X158497715Y-94145571D01*
X158783429Y-94145571D01*
X158926287Y-94074143D01*
X158997715Y-94002714D01*
X159069144Y-93859857D01*
X159069144Y-93431286D01*
X158997715Y-93288429D01*
X158926287Y-93217000D01*
X158783429Y-93145571D01*
X158497715Y-93145571D01*
X158354858Y-93217000D01*
X157640572Y-94145571D02*
X157640572Y-93145571D01*
X157640572Y-93431286D02*
X157569144Y-93288429D01*
X157497715Y-93217000D01*
X157354858Y-93145571D01*
X157212001Y-93145571D01*
X156140573Y-94074143D02*
X156283430Y-94145571D01*
X156569144Y-94145571D01*
X156712001Y-94074143D01*
X156783430Y-93931286D01*
X156783430Y-93359857D01*
X156712001Y-93217000D01*
X156569144Y-93145571D01*
X156283430Y-93145571D01*
X156140573Y-93217000D01*
X156069144Y-93359857D01*
X156069144Y-93502714D01*
X156783430Y-93645571D01*
X155569144Y-93145571D02*
X155212001Y-94145571D01*
X154854859Y-93145571D01*
X170997714Y-96695571D02*
X171497714Y-95981286D01*
X171854857Y-96695571D02*
X171854857Y-95195571D01*
X171283429Y-95195571D01*
X171140571Y-95267000D01*
X171069143Y-95338429D01*
X170997714Y-95481286D01*
X170997714Y-95695571D01*
X171069143Y-95838429D01*
X171140571Y-95909857D01*
X171283429Y-95981286D01*
X171854857Y-95981286D01*
X169712000Y-95195571D02*
X169997714Y-95195571D01*
X170140571Y-95267000D01*
X170212000Y-95338429D01*
X170354857Y-95552714D01*
X170426286Y-95838429D01*
X170426286Y-96409857D01*
X170354857Y-96552714D01*
X170283429Y-96624143D01*
X170140571Y-96695571D01*
X169854857Y-96695571D01*
X169712000Y-96624143D01*
X169640571Y-96552714D01*
X169569143Y-96409857D01*
X169569143Y-96052714D01*
X169640571Y-95909857D01*
X169712000Y-95838429D01*
X169854857Y-95767000D01*
X170140571Y-95767000D01*
X170283429Y-95838429D01*
X170354857Y-95909857D01*
X170426286Y-96052714D01*
X168854858Y-96624143D02*
X168854858Y-96695571D01*
X168926286Y-96838429D01*
X168997715Y-96909857D01*
X167354857Y-96695571D02*
X167854857Y-95981286D01*
X168212000Y-96695571D02*
X168212000Y-95195571D01*
X167640572Y-95195571D01*
X167497714Y-95267000D01*
X167426286Y-95338429D01*
X167354857Y-95481286D01*
X167354857Y-95695571D01*
X167426286Y-95838429D01*
X167497714Y-95909857D01*
X167640572Y-95981286D01*
X168212000Y-95981286D01*
X166854857Y-95195571D02*
X165854857Y-95195571D01*
X166497714Y-96695571D01*
X164140572Y-95909857D02*
X162997715Y-95909857D01*
X162997715Y-96338429D02*
X164140572Y-96338429D01*
X161140572Y-95695571D02*
X161140572Y-96695571D01*
X161140572Y-95838429D02*
X161069144Y-95767000D01*
X160926286Y-95695571D01*
X160712001Y-95695571D01*
X160569144Y-95767000D01*
X160497715Y-95909857D01*
X160497715Y-96695571D01*
X159212001Y-96624143D02*
X159354858Y-96695571D01*
X159640572Y-96695571D01*
X159783429Y-96624143D01*
X159854858Y-96481286D01*
X159854858Y-95909857D01*
X159783429Y-95767000D01*
X159640572Y-95695571D01*
X159354858Y-95695571D01*
X159212001Y-95767000D01*
X159140572Y-95909857D01*
X159140572Y-96052714D01*
X159854858Y-96195571D01*
X158640572Y-95695571D02*
X158354858Y-96695571D01*
X158069144Y-95981286D01*
X157783429Y-96695571D01*
X157497715Y-95695571D01*
X156926286Y-96695571D02*
X156926286Y-95695571D01*
X156926286Y-95981286D02*
X156854858Y-95838429D01*
X156783429Y-95767000D01*
X156640572Y-95695571D01*
X156497715Y-95695571D01*
X155426287Y-96624143D02*
X155569144Y-96695571D01*
X155854858Y-96695571D01*
X155997715Y-96624143D01*
X156069144Y-96481286D01*
X156069144Y-95909857D01*
X155997715Y-95767000D01*
X155854858Y-95695571D01*
X155569144Y-95695571D01*
X155426287Y-95767000D01*
X155354858Y-95909857D01*
X155354858Y-96052714D01*
X156069144Y-96195571D01*
X154854858Y-95695571D02*
X154497715Y-96695571D01*
X154140573Y-95695571D01*
D12*
X131238740Y-90357400D02*
X130538740Y-90357400D01*
X130538740Y-91557400D02*
X131238740Y-91557400D01*
X151097500Y-90198500D02*
X151797500Y-90198500D01*
X151797500Y-88998500D02*
X151097500Y-88998500D01*
X140216000Y-92120000D02*
X141216000Y-92120000D01*
X141216000Y-90760000D02*
X140216000Y-90760000D01*
X140216000Y-88564000D02*
X141216000Y-88564000D01*
X141216000Y-87204000D02*
X140216000Y-87204000D01*
X140216000Y-90342000D02*
X141216000Y-90342000D01*
X141216000Y-88982000D02*
X140216000Y-88982000D01*
X145788000Y-93554000D02*
X144788000Y-93554000D01*
X144788000Y-94914000D02*
X145788000Y-94914000D01*
X141279500Y-93554000D02*
X140279500Y-93554000D01*
X140279500Y-94914000D02*
X141279500Y-94914000D01*
X145724500Y-87204000D02*
X144724500Y-87204000D01*
X144724500Y-88564000D02*
X145724500Y-88564000D01*
D13*
X131055406Y-90064543D02*
X131103025Y-90112162D01*
X131245882Y-90159781D01*
X131341120Y-90159781D01*
X131483978Y-90112162D01*
X131579216Y-90016924D01*
X131626835Y-89921686D01*
X131674454Y-89731210D01*
X131674454Y-89588352D01*
X131626835Y-89397876D01*
X131579216Y-89302638D01*
X131483978Y-89207400D01*
X131341120Y-89159781D01*
X131245882Y-89159781D01*
X131103025Y-89207400D01*
X131055406Y-89255019D01*
X130103025Y-90159781D02*
X130674454Y-90159781D01*
X130388740Y-90159781D02*
X130388740Y-89159781D01*
X130483978Y-89302638D01*
X130579216Y-89397876D01*
X130674454Y-89445495D01*
X151677666Y-91225643D02*
X151725285Y-91273262D01*
X151868142Y-91320881D01*
X151963380Y-91320881D01*
X152106238Y-91273262D01*
X152201476Y-91178024D01*
X152249095Y-91082786D01*
X152296714Y-90892310D01*
X152296714Y-90749452D01*
X152249095Y-90558976D01*
X152201476Y-90463738D01*
X152106238Y-90368500D01*
X151963380Y-90320881D01*
X151868142Y-90320881D01*
X151725285Y-90368500D01*
X151677666Y-90416119D01*
X151296714Y-90416119D02*
X151249095Y-90368500D01*
X151153857Y-90320881D01*
X150915761Y-90320881D01*
X150820523Y-90368500D01*
X150772904Y-90416119D01*
X150725285Y-90511357D01*
X150725285Y-90606595D01*
X150772904Y-90749452D01*
X151344333Y-91320881D01*
X150725285Y-91320881D01*
X137682266Y-91968581D02*
X138015600Y-91492390D01*
X138253695Y-91968581D02*
X138253695Y-90968581D01*
X137872742Y-90968581D01*
X137777504Y-91016200D01*
X137729885Y-91063819D01*
X137682266Y-91159057D01*
X137682266Y-91301914D01*
X137729885Y-91397152D01*
X137777504Y-91444771D01*
X137872742Y-91492390D01*
X138253695Y-91492390D01*
X136729885Y-91968581D02*
X137301314Y-91968581D01*
X137015600Y-91968581D02*
X137015600Y-90968581D01*
X137110838Y-91111438D01*
X137206076Y-91206676D01*
X137301314Y-91254295D01*
X137783866Y-88310981D02*
X138117200Y-87834790D01*
X138355295Y-88310981D02*
X138355295Y-87310981D01*
X137974342Y-87310981D01*
X137879104Y-87358600D01*
X137831485Y-87406219D01*
X137783866Y-87501457D01*
X137783866Y-87644314D01*
X137831485Y-87739552D01*
X137879104Y-87787171D01*
X137974342Y-87834790D01*
X138355295Y-87834790D01*
X137402914Y-87406219D02*
X137355295Y-87358600D01*
X137260057Y-87310981D01*
X137021961Y-87310981D01*
X136926723Y-87358600D01*
X136879104Y-87406219D01*
X136831485Y-87501457D01*
X136831485Y-87596695D01*
X136879104Y-87739552D01*
X137450533Y-88310981D01*
X136831485Y-88310981D01*
X137733066Y-90165181D02*
X138066400Y-89688990D01*
X138304495Y-90165181D02*
X138304495Y-89165181D01*
X137923542Y-89165181D01*
X137828304Y-89212800D01*
X137780685Y-89260419D01*
X137733066Y-89355657D01*
X137733066Y-89498514D01*
X137780685Y-89593752D01*
X137828304Y-89641371D01*
X137923542Y-89688990D01*
X138304495Y-89688990D01*
X137399733Y-89165181D02*
X136780685Y-89165181D01*
X137114019Y-89546133D01*
X136971161Y-89546133D01*
X136875923Y-89593752D01*
X136828304Y-89641371D01*
X136780685Y-89736610D01*
X136780685Y-89974705D01*
X136828304Y-90069943D01*
X136875923Y-90117562D01*
X136971161Y-90165181D01*
X137256876Y-90165181D01*
X137352114Y-90117562D01*
X137399733Y-90069943D01*
X148502666Y-94622881D02*
X148836000Y-94146690D01*
X149074095Y-94622881D02*
X149074095Y-93622881D01*
X148693142Y-93622881D01*
X148597904Y-93670500D01*
X148550285Y-93718119D01*
X148502666Y-93813357D01*
X148502666Y-93956214D01*
X148550285Y-94051452D01*
X148597904Y-94099071D01*
X148693142Y-94146690D01*
X149074095Y-94146690D01*
X147645523Y-93956214D02*
X147645523Y-94622881D01*
X147883619Y-93575262D02*
X148121714Y-94289548D01*
X147502666Y-94289548D01*
X137948966Y-94737181D02*
X138282300Y-94260990D01*
X138520395Y-94737181D02*
X138520395Y-93737181D01*
X138139442Y-93737181D01*
X138044204Y-93784800D01*
X137996585Y-93832419D01*
X137948966Y-93927657D01*
X137948966Y-94070514D01*
X137996585Y-94165752D01*
X138044204Y-94213371D01*
X138139442Y-94260990D01*
X138520395Y-94260990D01*
X137044204Y-93737181D02*
X137520395Y-93737181D01*
X137568014Y-94213371D01*
X137520395Y-94165752D01*
X137425157Y-94118133D01*
X137187061Y-94118133D01*
X137091823Y-94165752D01*
X137044204Y-94213371D01*
X136996585Y-94308610D01*
X136996585Y-94546705D01*
X137044204Y-94641943D01*
X137091823Y-94689562D01*
X137187061Y-94737181D01*
X137425157Y-94737181D01*
X137520395Y-94689562D01*
X137568014Y-94641943D01*
X148566166Y-88323681D02*
X148899500Y-87847490D01*
X149137595Y-88323681D02*
X149137595Y-87323681D01*
X148756642Y-87323681D01*
X148661404Y-87371300D01*
X148613785Y-87418919D01*
X148566166Y-87514157D01*
X148566166Y-87657014D01*
X148613785Y-87752252D01*
X148661404Y-87799871D01*
X148756642Y-87847490D01*
X149137595Y-87847490D01*
X147709023Y-87323681D02*
X147899500Y-87323681D01*
X147994738Y-87371300D01*
X148042357Y-87418919D01*
X148137595Y-87561776D01*
X148185214Y-87752252D01*
X148185214Y-88133205D01*
X148137595Y-88228443D01*
X148089976Y-88276062D01*
X147994738Y-88323681D01*
X147804261Y-88323681D01*
X147709023Y-88276062D01*
X147661404Y-88228443D01*
X147613785Y-88133205D01*
X147613785Y-87895110D01*
X147661404Y-87799871D01*
X147709023Y-87752252D01*
X147804261Y-87704633D01*
X147994738Y-87704633D01*
X148089976Y-87752252D01*
X148137595Y-87799871D01*
X148185214Y-87895110D01*
M02*
